<svg
  width="489.00000000000006"
  height="242.32952501218972"
  viewBox="0 0 350 173.4464902950233"
  class="css-1j8o68f"
>
  <defs id="SvgjsDefs1396"></defs>
  <g
    id="SvgjsG1397"
    featurekey="1p4tPl-0"
    transform="matrix(1.4146031677563458,0,0,1.4146031677563458,103.74641278161394,-14.026294906786504)"
    fill="#111111"
  >
    <path
      xmlns="http://www.w3.org/2000/svg"
      d="M91.9,77.8c-0.9,0.1-0.9,0.9-1.2,1.5c-0.3,0.5-0.2,1.2-1.3,1.1c-1.1-0.1-1.5,1.2-1.9,2.1c-0.2,0.5-0.3,1.1-0.9,1.4  c-0.5-0.4,0.5-0.9-0.2-1.3c-0.5,0.9-1,1.9-1.5,2.8c-0.7-0.3,0-0.7-0.4-1.1c-0.4,1-1.4,1-2.2,1.4c-1,0.5-1.9,1.3-3,1.7  c-1.2,0.4-2.4,0.9-3.7,0.8c-0.5,0-0.9,0.2-1.3,0.5c-1.1,0.6-2.3,1.2-3.6,1.3c-0.4,0-1,0.1-1.1-0.4c-0.2-1.1-1-0.9-1.7-0.9  c-1.9,0.1-3.8-0.6-5.7-0.1c-0.2,0-0.3,0-0.5,0c-0.3-0.1-0.7-0.2-0.6-0.6c0.1-0.5,0.5-0.2,0.8-0.1c0.7,0.1,1.4,0.2,2-0.3  c0.6-0.4,1.4-0.1,2.2-0.7c-1.1,0-1.9,0-2.7,0c-0.7,0.1-1.5,0.3-2.2,0.3c-1.1,0-2.2,0.4-3-0.9c-0.3-0.4-0.9-0.2-1.3-0.4  c-0.9-0.3-2.1-0.3-2.2-1.7c0-0.1-0.1-0.2-0.2-0.2c-1.4-0.3-1.8-1.9-2.9-2.6c-0.3-0.2-0.5-0.5-0.7-0.9c-0.8-1.6-2.3-2.7-3.2-4.2  c-0.2-0.3-0.6-0.4-0.9-0.6c-0.5-0.3-1.3-0.5-0.9-1.4c-0.9-1.3-1.2-3-2.3-4.3c-0.7-0.9-1.2-1.9-1.2-3c0-1.2-0.5-2.4-0.5-3.6  c0-0.6-0.2-0.3-0.5-0.2C41,63.3,41,62.9,41,62.7c-0.3-3.1-1.4-6-2.5-8.9c-0.2-0.4-0.3-0.9-0.8-1.3c-0.4,1.1-0.5,2.1-0.5,3.2  c-0.8-0.3-0.7-0.3-0.8-0.9c-0.1-0.4,0-0.8,0.1-1.2c0.6-2.8,0.6-5.6,0.6-8.4c0-0.4,0-0.7-0.3-1.2c-1.4,1.3-1.8,3-2.6,4.6  c-0.8,1.6-1,3.4-1.7,5c-0.2-0.8,0-2.2,0.6-3.6c1-2.4,1.7-4.9,3.5-6.9c0.4-0.4,0.3-0.9,0.2-1.4c-0.2-1.8-0.5-3.7-0.7-5.5  c0-0.2,0-0.3,0.2-0.5c0.6,0.5,1,1.2,1.3,2c0.5,1.4,1.2,2.6,1.9,3.9c0.7,1.3,0.9,2.7,0.5,4c-0.2,0.8-0.2,1.4-0.1,2.2  c0.2,1.2,0.4,2.4,0.1,3.6c-0.6-2.4-0.4-4.9-2-7.2c-0.3,0.7-0.2,1.3-0.2,1.8c-0.1,2.8,0,5.5,1.5,8c0.8,1.4,1.3,3.2,1.6,4.8  c0.1,0.3,0.1,0.6,0.4,0.9c0.6-0.9,0.3-2,0.4-3c0.2-1.9,0.4-3.9,0.6-5.8c0.4-4.2-0.1-8.3-1.5-12.2c0.7,0.6,0.9,1.4,1.1,2.2  c1.1,3.8,1.2,7.6,0.6,11.5c-0.2,1.1-0.2,2.3,0,3.5c0.9-2.4,2.8-4,3.9-6.1c0,0,0-0.1,0.1-0.1c1.7-1.3,2-3.1,2-5.1  c0-0.6,0.2-1.2,0.5-1.8c0.4,1.4-0.2,2.7-0.2,4.1c0.8,0,1.4-0.4,1.9-0.8c1.3-0.8,2.6-1.7,4.1-2.1c1.3-0.4,2.2-1.4,3.5-1.9  c0.4-0.1,0.6-0.6,0.4-0.9c-0.8-2.5-1.9-4.9-3.8-6.9c0,1.6,0.9,3,0.7,4.6c-1.1-2.5-1.7-5.1-2.8-7.6c0.9-0.3,0.6,0.8,1.2,0.7  c0.1-0.3,0.1-0.5,0-0.8c-1.1-2.5-1.9-5.1-3.7-7.2c-0.2-0.2-0.4-0.4-0.2-0.7c0.3-0.3,0.6,0,0.8,0.2c0.3,0.3,0.5,0.7,0.7,1.1  c1.3,2.7,2.8,5.3,3.5,8.2c0,0.2,0.1,0.4,0.2,0.6c1.2,1.6,2,3.3,3.1,5.1c0.2-0.6,0.1-1.1,0-1.5c-0.5-2.3-0.8-4.6-2.2-6.6  c-0.2-0.2-0.3-0.5,0.1-0.6c0.3-0.1,0.4,0.1,0.5,0.3c1.2,2.3,2.2,4.7,3,7.2c0.1,0.2,0.1,0.5,0,0.6c-1,1-0.3,2.3-0.5,3.4  c0.6,0.2,0.9-0.2,1.2-0.4c1.2-0.7,2.1-1.6,3.3-2.2c0.5-0.2,0.6-0.7,0.3-1.2c-0.6-0.8-0.9-1.8-1.3-2.7c-0.2-0.5-0.7-1-0.2-1.6  c0.2-0.3-0.1-0.6-0.3-0.8c-0.4-0.6-0.8-1.2-1.3-1.9c-0.2-0.2-0.3-0.5,0-0.7c0.3-0.2,0.5,0.1,0.6,0.3c0.4,0.5,0.7,1.1,1.1,1.6  c0.2,0.2,0.3,0.6,0.7,0.4c0,1.3,0.2,2.1,1,2.9c-0.1-0.7-0.2-1.4-0.4-2c-0.1-0.4-0.1-0.9-0.7-0.9c-0.3-2.1-1.7-3.4-3.1-4.7  c-0.2-0.2-0.4-0.3-0.6-0.5c-0.2-0.1-0.3-0.4-0.2-0.6c0.2-0.3,0.5-0.2,0.7,0c0.6,0.3,0.8,1,1.4,1.3c-0.1-1-0.3-1.4-1.3-2.2  c-1.7-1.4-3.6-2.4-5.4-3.7c-0.2-0.1-0.5-0.2-0.5-0.6c0.5-0.4,0.9-0.1,1.3,0.2c1,0.7,2,1.4,3,2.1c0.2,0.2,0.4,0.5,0.9,0.3  c-0.9-1.9-2.3-3.3-4.2-4.1c-1.4-0.6-2.8-1.2-4.3-1.2c-0.3,0-0.6,0-0.6-0.4c0-1.5-1.2-1.5-2.1-1.8c-1-0.4-2.1-0.2-3.1,0.2  c-0.3,0.1-0.7,0.2-1.1,0.3c-1.1,0.3-1.4,0.7-0.8,1.7c0.6,1,1.2,2,2.1,2.8c0.2,0.2,0.5,0.4,0.3,0.9c-1.3-1.6-3.1-2.8-3.2-5.1  c0-0.6-0.4-0.7-0.8-0.8c-1-0.3-1.8-0.8-2.5-1.6c-0.8-0.9-0.7-1.9-0.5-2.8c0.2-0.9,1.1-1.2,2-1.3c1.2-0.1,2.3-0.3,3.5-0.5  c1.1-0.2,1.6-0.1,2.1,0.9c0.4,0.9,1.1,1.5,1.5,2.4c0.4,0.8,1.5,1.3,2.6,1.3c1.4,0,2.6,0.5,3.8,1.1c1,0.6,2,1.2,3,1.8  c0.6,0.4,1.6,0.6,1.2,1.8c0,0.1,0.4,0.5,0.6,0.7c0.8,0.8,1.7,1.4,2.4,2.4c0.3,0.4,0.6,0.9,0.9,1.3c0.2,0.4,0.3,0.9-0.1,1.1  c-0.5,0.3-0.5-0.4-0.8-0.6c-0.1-0.1-0.2-0.1-0.5-0.3c0.6,1.9,2.6,2.6,3.2,4.4c-0.6,0.1-0.8-0.5-1.2-0.6c-0.2,0.1-0.2,0.3-0.1,0.4  c0.8,1.4,1.7,2.7,2.3,4.2c0.3,0.7,0.8,1.2,0.1,2c-0.3,0.3-0.1,1-0.2,1.6c-0.1,1.3,0.3,1.7,1.6,1.5c1.8-0.3,3.5,0.1,5.2,0.5  c1.1,0.2,2.3,0.5,3.5,0.5c1.3,0,2.5,0.3,3.7,0.8c1.7,0.8,3.6,0.7,5.5,1c2.5,0.5,4.9,1.1,7.2,1.9c2.7,0.9,3.9,3,4.4,5.6  c0.2,1,0.5,1.9,0.9,2.8c1.3,2.6,2.1,5.4,1,8.3c0,0.1,0,0.2-0.1,0.3c-0.1,0.8-0.5-0.5-0.6,0.1c-0.1,0.3-0.1,0.6-0.1,1  c0,2.9-0.7,5.7-1,8.6c-0.1,1.1-0.8,2-1.3,2.9c-0.6,1-0.7,1-0.8,1.3c-0.1,0.8-0.3,1.6-0.4,2.4C93.6,76.8,93.1,77.6,91.9,77.8  c1-0.6,1.4-1.5,1.5-2.6c-0.3,0.3-0.6,0.4-0.9,0.4c-0.7-0.1-0.5,0.6-0.7,1C91.4,76.9,91.9,77.3,91.9,77.8z M80.3,80.2  c0.5,0.3,1.2,0.3,1.5,1c-0.3,0.3-0.5,0.1-0.8,0.1c-0.9,0-1.6,0-1.7-1.1c0-0.3-0.4-0.5-0.7-0.3c0.2,2.1,0.3,2.2,2.2,2.7  c1,0.3,2.2,0,3.1,0.8c0.2,0.2,0.4,0,0.5-0.1c0.9-0.6,1.3-1.4,1.1-2.4c-0.1-0.4-0.3-0.9,0.3-1.2c0.2,0.2,0,0.6,0.3,0.7  c0.3,0.1,0.5-0.2,0.6-0.4c0.5-1.4,2-2.2,2-3.8c0-0.2,0.1-0.4,0.3-0.6c1.2-1.8,1-3.7,0.9-5.7c0-0.4-0.2-0.9-0.7-0.8  c-0.5,0.1-0.4,0.6-0.4,0.9c-0.1,0.8-0.2,1.6-0.3,2.4c-0.1,0.5,0,1.1-0.5,1.4c-0.1-0.1-0.2-0.2-0.2-0.2c0-0.2,0-0.4,0-0.6  c0.5-2.8,0.8-5.6,0.4-8.4C88,63.6,88,62.8,88,62c0-0.2,0-0.5,0.3-0.5c0.3,0,0.4,0.2,0.5,0.5c0,0.3,0,0.6,0,1c0,1.4,0,2.8,0,4.2  c0,0.3-0.2,0.7,0.3,0.8c0.5-0.2,0.6-0.6,0.6-1C89.5,65,90,63.1,90,61.2c0-1,0.2-2,0.3-3c0.1-0.6,0.2-1.3,1.1-1.7  c0.1,0.8-0.5,1.3-0.6,2c-0.2,3.7-1.5,7.3-0.4,11c0.1,0.5,0.1,1,0.1,1.6c0,0.2,0,0.5,0.1,0.6c1.1,0.5,0.5,1.4,0.6,2.1  c0,0.3-0.3,0.7,0,1c1-1.1,1-1.1,1.2-3.3c0-0.3,0.3-0.3,0.4-0.5c0.5-0.7,0.9-1.7,0.6-2.4c-0.3-0.8-0.1-1.5,0-2.2  c0.2-0.9,0.1-1.6-0.4-2.7c-0.2,0.8-0.2,1.5-0.6,2.2c-0.6-0.4-0.5-0.9-0.4-1.4c0.8-2.6,0.6-5.3,0.4-7.9c0,0,0.2-0.1,0.2-0.1  c0.3,0.3,0,0.9,0.5,1.3c0.5-0.8,0.2-1.8,0.6-2.7c0.1-0.4,0.1-0.7-0.2-1c-0.5-0.4-0.8,0.1-1.1,0.3c-0.7,0.4-1.1,1.1-1.9,1.5  c-1.3,0.6-2.5,1.3-3.9,2c0.4,0.5,0.6,1.1,0.7,1.6c0.6,2.9,0.5,5.8,0.4,8.7c0,0.4,0,0.9-0.3,1c-0.7,0.3-0.5,0.9-0.5,1.4  c0,1.9,0.1,3.8-0.1,5.8c-0.1,1.2,0.1,2.5-1,3.4c1.2-3.9,0.8-7.9,0.6-11.8c0.8,0.3,1.2,0,1.1-0.8c-0.3-2-0.1-3.9-0.5-5.9  c-0.1-0.8-0.2-1.7-0.6-2.4c-0.3-0.5-0.5-0.6-1-0.3c-1,0.6-1.9,1.4-2.7,2.2c-2.2,2.5-4.2,5.2-6.5,7.6c-0.6,0.7-1.3,1.3-2,1.8  c-0.6,0.4-0.6,0.8-0.3,1.4c0.2,0.3,0.4,0.5,0.6,0.7c-0.1,0-0.3,0-0.4-0.1c-1.2-1-1.2-1.1-2.5-0.3c-2.2,1.4-4.6,2.3-7.2,2.9  c-1.5,0.3-3,0.8-4.5,1.1c-1.6,0.3-3.1,0.7-4.7,0.4c-2.5-0.5-5-1.2-7.2-2.6c-0.3-0.2-0.6-0.5-1-0.1c1.2,2.7,3.8,2.7,6.4,3.2  c-1.1,0.4-2,0-3,0.2c1.6,1.1,3.1,1.4,4.8,1.9c-0.2-0.8-1-1.4-0.6-2.3c2.3,3.9,5.3,6.2,10.3,6c-1.7,0.8-3.4,0.1-4.7,1.2  c1.2,0.8,2.6,0.8,3.9,0.9c0,0.6-0.7,0.3-0.8,0.8c1.1,0.2,1.1,0.2,3.6-1.6c-0.2,0.9,0,1.3,0.9,0.9c0.2-0.1,0.5-0.2,0.8,0  c-0.8,0.5-1.9,0.4-2.8,1c0.9,0.6,2,0.5,2.9,0.6c1.3,0.2,2.7-0.6,4-1.2c-1-1.1-2-2.1-2.9-3.2c-0.3-0.3-0.7-0.7-1.2-0.4  c-0.2,0.1-0.4-0.1-0.5-0.3c-0.8-0.8-0.8-2.1-2-2.6c0,0-0.1-0.2,0-0.3c0.1-0.2,0.3-0.2,0.4-0.1c2.4,1.3,4.7,2.7,6.5,4.9  c0.1,0.1,0.1,0.3,0.1,0.4c0,0.9,0,0.9,0.1,1.2c0.1,0.2,0.3,0.4,0.2,0.7c-0.4,0.5-1.3,0.3-1.7,1c0.3,0,0.5,0.1,0.7,0.1  c1.4-0.1,2.8-0.6,3.9-1.5c0.3-0.2,0.7-0.6,0.6,0.2c0,0.2,0.1,0.3,0.3,0.3c1.2,0,2.3,0.1,3.3-0.9c-0.4-0.3-0.8-0.1-1.2-0.2  c-0.5-0.1-1-0.1-1.4-0.3c-0.4-0.1-1-0.2-1.1-0.8c-0.1-0.9-0.6-1.4-1.2-1.9c-0.5-0.3-0.6-0.8-0.9-1.7c0.8,0.6,1.4,1,2,1.1  c0.9,0.2,0.5-0.4,0.3-0.7c0.5,0.4,0.7,1.4,1.8,1.2c-0.2-0.6-0.4-1.1-0.6-1.6c-0.2-0.8-0.9-1.2-1.6-1.4c-0.6-0.1-0.2,0.3-0.1,0.6  c-1.2-1.1-2.3-2.3-3.5-3.4c-1-1-1-1.1-0.3-2.5c1.4,1.7,1.9,4.2,4.6,5c-0.7-1.4-1.3-2.6-2.2-3.6c-0.2-0.2-0.6-0.5-0.4-0.7  c0.8-0.6-0.2-1.1-0.1-1.6c0.8,0.6,1.6,1.2,1.8,2.3c0,0-0.1-0.1-0.1-0.1c0,0-0.1,0-0.1,0c-0.3,0.3,0,0.5,0.1,0.7  c0.6,1.1,1.2,2.1,1.8,3.2c0.2,0.4,0.5,0.8,1,1c0.2,0.1,0.4,0,0.5-0.3c0.5,0.3,0.5,1.1,1,1.3C80.1,80.2,80.2,80.2,80.3,80.2z   M49.9,70.6L49.9,70.6c0.1,0.1,0.2,0.4,0.4,0.4c2.4,1,4.9,1.5,7.4,1.7c0.3,0,0.6,0,0.9-0.3c0.1-0.1,0.3-0.4,0.5-0.3  c1.3,0.8,0.9-0.3,1-0.9c0.1-0.5-0.2-1.2,0.7-1.3c0.2,0.5-0.2,1-0.1,1.4c0,0.2,0.1,0.6,0.4,0.7c0.3,0.1,0.4-0.2,0.6-0.4  c0.2-0.3-0.1-0.8,0.5-1.2c0,0.8,0,1.5,1,1.3c2.9-0.4,5.3-1.6,7.5-3.4c-1.2-1.4-1.3-1.6-1.3-2.7c0.6,0,0.6,0.5,0.8,0.9  c0.2,0.4,0.4,0.8,0.8,1.2c0.2,0.1,0.3,0.3,0.6,0.1c0.2-0.1,0.3-0.3,0.2-0.5c-0.1-0.3-0.4-0.6-0.5-1c-0.2-0.4-0.4-0.9,0.2-1.3  c0.3,0.6,0.6,1.1,0.9,1.6c0.2,0.2,0.5,0.3,0.7,0c0.2-0.2,0.1-0.4,0-0.6c-0.2-0.4-0.7-0.6-0.6-1.2c0.9-0.4,0.8,0.9,1.4,0.9  c0.5-0.2,0.9-0.7,1.2-1.1c1.5-1.6,2.6-3.7,4.3-5.1c0.5-0.4,0.3-0.8,0-1.3c-0.2-0.4-0.9-1-0.3-1.3c0.5-0.3,0.5,0.7,0.8,1  c0.2,0.2,0.3,0.4,0.6,0.3c0.3-0.1,0.3-0.4,0.3-0.7c0-0.3-0.5-0.6-0.2-1c0.1,0,0.1,0,0.1,0c0.2,0,0.4,0.1,0.5,0.3  c0.2,0.2,0.4,0.3,0.6,0.1c1.6-1.7,3.7-2.4,5.8-3.2c2.3-0.9,3.9-2.6,5.2-4.6c-0.3-0.2-0.7,0-0.8-0.3c0.1-0.1,0.1-0.2,0.2-0.3  c0.3-0.3,0.9-0.3,0.8-0.9c-0.1-0.6-0.7-0.6-1.2-0.6c-0.2,0-0.3,0-0.5-0.1c-0.3-0.1-0.4-0.3-0.2-0.4c0.6-0.3,0.3-0.6,0-0.8  c-0.4-0.2-0.7-0.5-1.1-0.6c-2.5-0.7-5-1.3-7.5-2c-1.1-0.3-2.1-0.3-2.9,0.6c0,0-0.2,0-0.3-0.1c-0.1-0.3,0.3-0.6-0.1-0.8  c-0.7,0.2-0.7,1.3-1.5,1.4c-0.3-0.7,0.5-1,0.4-1.6c-0.7-0.4-1.5-0.4-2.3-0.5c-1.5-0.2-3.1-0.3-4.6-0.7c-2.5-0.7-4.9-0.2-7,1.1  c-1.5,0.9-1.7,0.7-0.8,2.5c0,0.1-0.1,0.2-0.1,0.3c-0.5,0.1-0.7-0.2-0.8-0.6c-0.2-0.3-0.3-0.8-0.8-0.4c-0.4,0.3-0.1,0.5,0.1,0.8  c0.1,0.3,0.2,0.6,0.3,0.9c0.2,0.5-0.2,0.8-0.5,1.1c-0.3,0.3-0.7,0.3-1,0c-0.4-0.3-0.8-0.6-1.1-0.9c-0.4-0.4-0.8-0.4-1.3-0.3  c-1.7,0.5-3.1,1.6-4.5,2.6c0.8,0.7,1,1.5,1.8,2.4c-1.1-0.5-1.5-1.1-2-1.7c-0.2-0.2-0.4-0.5-0.8-0.3c-2.2,0.9-3.6,2.6-4.9,4.5  c0.9,0.6,2.1,0.1,2.8,0.9c-0.3,0.4-0.6,0.3-0.9,0.2c-0.6-0.1-1.1-0.2-1.7-0.4c-0.4-0.1-0.7,0-0.7,0.4c0,0.3,0.3,0.4,0.5,0.4  c0.7,0.2,1.5,0.3,1.9,1.3c-1,0-1.7-0.6-2.6-0.7c-0.6,0-1.4,0.6-1.4,1.3c0,0.7,0.6,0.6,1.1,0.6c0.2,0,0.5,0,0.6,0.3  c0,0.1,0,0.2-0.1,0.2c-0.3,0.1-0.5,0.1-0.8,0.2c-1.5,0.1-1.5,0.1-1.6,1.6c-0.1,1.9,0,3.7,0.3,5.6c0.2,1.4,0.6,2.9,2.3,3.5l0,0  c0.2,0.3,0.1,0.9,0.8,0.8c0.3-0.5,0.6-1,0.9-1.5c0.1-0.2,0.3-0.3,0.5-0.2c0.2,0.1,0.2,0.4,0,0.5c-0.2,0.3-0.4,0.6-0.7,0.9  c-0.3,0.4-0.3,0.8-0.1,1.2C49.1,70.9,49.5,70.7,49.9,70.6z M83.6,41.9c2,0.9,4,1.1,5.9,1.8c1.5,0.5,2.8,1.3,3.8,2.5  c1,1.1,1,2.4,0.4,3.7c-0.5,1.1-1.5,1.9-2.4,2.7c-1.8,1.7-4.1,2.5-6.4,3.2c-1,0.3-1.9,0.8-2.6,1.6c-1.5,1.7-3,3.5-4.4,5.3  c-2.4,3.3-5.4,5.8-8.7,8.1c-0.5,0.3-1,0.6-1.6,0.7c-2.2,0.7-4.5,1.3-6.7,2c-1.2,0.4-2.3,0.6-3.6,0.6c-1,0-1.9-0.4-2.8-0.5  c-0.9-0.1-1.9-0.2-2.8-0.5c-2.3-0.8-4.4-2.1-6-4c-1-1.2-1.8-2.4-2-3.9c-0.1-1.2-0.1-2.3-0.1-3.5c0-0.9-0.2-1.8,0-2.7  c1-4.1,3.1-7.4,6.4-10c1.5-1.2,3.4-1.8,4.8-3.1c0.5-0.5,1.1-0.7,1.8-0.9c1.4-0.4,2.9-0.8,4.1-1.7c1.4-1.2,3.1-1.9,4.7-2.6  c0.9-0.4,2-0.8,3.1-0.7c2.1,0.2,4.1,0.4,6.2,0.8c2.2,0.4,4.4,0.7,6.6,1.1c-0.2-0.5-0.6-0.5-1-0.6c-3.7-1.1-7.5-1.4-11.2-2.3  c-1.1-0.3-2.1-0.2-3.1,0.2c-1.3,0.4-2.5,0.9-3.6,1.7c-2.5,1.7-5.1,3-7.8,4.3c-2.4,1.1-4.7,2.3-6.5,4.2c-1.6,1.8-2.8,3.9-4.1,5.9  c-0.1,0.2-0.2,0.5-0.3,0.7c-0.8,2.6-1.2,5.2-0.7,7.9c0.2,0.9,0.4,1.9,0.2,2.9c-0.1,0.5,0.1,1,0.4,1.5c1.8,3.6,5.1,5.3,8.8,6.3  c2.4,0.6,4.9,0.5,7.3,0c3.7-0.7,7.3-1.5,10.6-3.3c2-1.1,3.8-2.3,5.3-4c1.7-1.9,3.2-3.8,4.8-5.8c1.8-2.2,3.9-3.9,6.4-5  c2-0.9,4-1.9,5.6-3.5c0.9-0.9,1.6-1.7,2-3c0.6-2.5-0.4-5-2.8-5.9c-2.2-0.8-4.5-1.5-6.8-2.2C84.5,41.7,84.1,41.7,83.6,41.9z   M94.8,54.7c-0.2,0.2-0.3,0.3-0.4,0.5c-0.6,1.9-1,3.8-1.3,5.7c-0.1,0.7,0.2,1.4,0.8,2.2c0.5-1.6,0-3,0.4-4.6c0.5,0.8,0.5,1.4,0.4,2  c0,0.8,0.2,1.2,1.1,1.1c0.1-1.1-0.4-2.1-0.6-3.1c-0.1-0.3-0.4-0.7,0.1-0.8c1-0.3,0.3-0.6,0.1-0.8c-0.2-0.3-0.8,0-0.9-0.5  C95.7,55.8,95.7,55.8,94.8,54.7z M94.5,68.1c1.5-2.2,1.5-3.9,0.1-5.6C94.4,64.4,93.5,66.1,94.5,68.1z M51.3,78.8  c1.7,1.2,3.4,2.5,5.8,2.2C55.7,78.8,53.3,79.4,51.3,78.8z M37.3,39.2c-0.6,2.6,1,4.1,2,6C39.5,42.8,38.5,41.2,37.3,39.2z M81.4,83.6  c-0.9-0.1-1.8-1.2-2.7,0.1c0.1-1.6-1.2-1.4-2.2-1.7c0.6,0.6,0.5,1.8,1.5,1.9C79.1,84.1,80.4,84.6,81.4,83.6z M70.8,89.2  c0.7-0.1,1.4-0.4,2.1-0.6c0.7-0.2,1.3-0.7,1.9-1c0.3-0.1,0.4-0.4,0.3-0.7c-0.1-0.3-0.4-0.3-0.6-0.1c-1.3,0.6-2.6,1.2-3.9,1.6  c-0.2,0.1-0.5,0.3-0.4,0.6C70.2,89.3,70.5,89.2,70.8,89.2z M88.5,78.8c2.1-1.4,2.1-3.4,1.9-5.4C90.1,75.3,88.7,76.8,88.5,78.8z   M60.3,82.9c-0.8-0.5-1.3-0.9-2-1.1c-0.5-0.1-0.9,0.1-1.1,0.6c-0.1,0.2-0.3,0.3-0.1,0.5c0.3,0.3,0.7,0.5,1.1,0.4  C58.8,83.2,59.4,83.1,60.3,82.9z M97.3,57.7c0.4-1.5,0.2-2.5-0.6-3.3C96.5,55.6,96.8,56.6,97.3,57.7z M45.4,14.4  c-1.8,1.2-1.8,1.2-3.8-0.1c-0.2-0.1-0.4-0.2-0.5,0c-0.1,0.2-0.1,0.4,0.1,0.6C42.2,15.8,44.5,15.6,45.4,14.4z M44.9,12  c-1-0.4-2-0.4-3.2,0.2C42.9,12.6,43.9,12.2,44.9,12z M52.5,15.9c0,0.1-0.1,0.1-0.1,0.2c0.5,0.4,1,0.7,1.5,1.1c0.2,0.2,0.5,0.3,0.6,0  c0.2-0.3-0.2-0.4-0.4-0.5C53.6,16.4,53.1,16.2,52.5,15.9z M41.5,62.3c0.3-0.7,0.5-1.1-0.1-1.6C41.3,61.2,41.2,61.6,41.5,62.3z   M47.5,15.3c0.5,0.3,0.9,0.3,1.6,0.1C48.5,15.1,48.1,14.7,47.5,15.3z M71.5,83.2c-0.3-0.6-0.6-1.1-1.4-1.4  C70.5,82.6,71,82.9,71.5,83.2z M60.4,45.1c0.1,0.5-0.1,1.1,0.7,1.4C61.1,45.8,60.8,45.4,60.4,45.1z M94.8,52.5  c0,0.4-0.3,0.9,0.2,1.2c0.1,0.1,0.4,0.1,0.4,0C95.5,53.2,95.3,52.8,94.8,52.5z M69.8,87.8c-0.5-0.4-0.5-0.4-1.4,0.1  C68.9,88.1,69.4,87.9,69.8,87.8z M56.1,18.1c0.3,0.5,0.7,0.7,1.3,0.5C57,18.2,56.6,18,56.1,18.1z M52.4,17.4  c-0.3-0.2-0.5-0.7-1.1-0.5C51.5,17.4,52,17.4,52.4,17.4z M45.6,13.8c0.2-0.4,0.2-0.8-0.3-1c-0.1,0-0.3,0.1-0.4,0.2  C44.8,13.5,45.3,13.6,45.6,13.8z M41.2,13.2c0.2-0.5-0.1-0.8-0.3-1c-0.1-0.1-0.3-0.2-0.4,0C40.5,12.6,40.7,12.9,41.2,13.2z   M59.5,84.8c-0.3-0.1-0.5-0.2-0.8-0.2c-0.1,0-0.2,0.2-0.1,0.2C58.9,85,59.1,85.1,59.5,84.8z"
    ></path>
    <path
      xmlns="http://www.w3.org/2000/svg"
      d="M29.2,71.8c-0.5-0.5-0.5-1.2-0.5-1.8c0-1.3-0.1-2.6,0.1-3.8c0.1-0.7-0.3-1.3-0.3-2l0,0c0.8,0,1.3-0.5,1.6-1.5  c0.1-0.5,0-1.1,0.7-1.4c0.4,0.5,0.5,1.2,0.3,1.8c-0.4,1.6-0.4,3.2-0.1,4.9c0,0.3-0.1,0.5-0.2,0.7c-0.2,0.8-0.7,1.7,0.3,2.4  c0.3,0.2,0.1,0.7,0.1,1.1c-0.1,0.9,0.2,1.7,0.8,2.4c0.3,0.4,0.6,0.5,1.1,0.5c0.5,0,0.8-0.2,0.7-0.8c-0.2-1.3-0.4-2.6-0.6-4  c0-0.3-0.2-0.6,0.1-1.1c0.8,1.1,0.9,2.4,1.1,3.8c0.8-0.5,0.8-1.3,0.9-2c0.2-2,0.3-3.9,0.4-5.9c0.1-0.7,0-1.5,0.6-2.1  c0.4-0.4,0.1-0.9,0-1.4c-0.3-1.4-0.9-2.7-1.5-4c-0.1-0.3-0.4-0.6,0.1-0.8c0.3-0.1,0.5,0.2,0.5,0.5c0.6,2.4,1.8,4.7,2,7.3  c0.8-1.1,0.9-3,0.2-4.3c0.6-0.2,0.9,0.1,1,0.7c0.1,1.2,0.2,2.3,0,3.5c-0.4,2-0.9,4-1.6,6c-0.4,1.2-0.4,2.5-0.8,3.7  c1.8,0.1,2-0.1,2.5-1.4c0.2-0.6,0.4-1.2,0.5-1.8c0.1-0.4,0.2-0.8,0.7-1c0.2,1-0.2,1.7-0.4,2.6c-0.1,0.3-0.4,0.6,0,0.8  c0.4,0.2,0.8-0.1,0.9-0.4c0.3-0.6,0.5-1.2,0.7-1.8c0.2-0.4,0.1-0.8,0.5-1.1c0.4,0.8,0.3,1.7-0.3,3c0.5,0.3,0.8-0.5,1.3-0.2  c-0.6,0.9-1.8,1-2.4,1.7c-0.1,0.1-0.2,0.1-0.3,0.1c-1.4-0.7-1.4,0.5-1.8,1.3c-0.2,0.4-0.3,0.8-0.7,1c-0.4-0.5,0.3-0.9,0-1.3  c-1.3,0.2-1.3,0.2-2.5,1.9c-0.3-0.2-0.2-0.4-0.1-0.7c0.1-0.5,0-0.7-0.5-0.7c-2,0.3-3.9,0.2-5.9,0.2c-0.3,0-0.5,0-0.8,0.2  c-1,0.4-1.9,0-2.4-0.8c-0.7-1-1.6-1.2-2.6-1.4c-0.4,0.8,0.3,1.4,0.1,2.3c-0.4-0.9-1-1.1-1.9-1c-0.9,0-1.5-0.8-1.6-1.7  c-0.2-1-0.7-1.8-1.5-2.4c-0.2-0.2-0.4-0.4-0.7-0.2c-0.3,0.2-0.1,0.5-0.1,0.7c0,0.5,0.3,0.9,0.5,1.3c-0.9-0.4-1-0.4-1.1-1.8  c-0.1-1.3-1-1.8-1.9-2.1c-0.4-0.1-0.9-0.1-1.4-0.2c-0.9-0.3-1.1-0.9-1.3-1.6c-0.2-0.7,0-1.6-1-1.9c-0.2,0.8-0.3,1.6,0.4,2.3  c-0.4,0.4-0.7,0.1-0.8-0.2c-0.1-0.3-0.3-0.6-0.2-0.9c0.2-1.6-1-2.7-1.3-4.1c0-0.2-0.3-0.3-0.4-0.4C8,62.3,8,62.6,7.9,62.7  C7.6,63,7.4,63.3,7,63.2c-0.5-0.2-0.5-0.6-0.5-1.1c0-0.6,0-1.2,0.1-1.7c0.3-1.1-0.1-2.2-0.2-3.3c0-0.2-0.1-0.4-0.2-0.4  C5,56.4,5.3,55.6,5.5,55c-0.3-0.4-0.4-0.2-0.5-0.1c-0.4,0.3-0.7,0.8-1.2,0.6c-0.6-0.3-0.4-0.9-0.3-1.4c0.1-0.5,0.3-1,0.5-1.5  c0.2-0.5,0.5-1-0.2-1.4c-0.3-0.2-0.2-0.5-0.1-0.7c0.5-1.6,0.1-3.3,0.2-4.9c0-0.3,0-0.7-0.4-0.7c-0.3,0-0.4,0.4-0.5,0.6  c-0.1,0.1,0,0.3,0,0.5c0.1,0.3,0,0.6-0.3,0.5c-0.3,0-0.4-0.3-0.4-0.6c0.1-0.6,0.4-1.1,0.7-1.6c0.7-1,1.4-2,1.4-3.4  c-0.7,0.3-0.8,1.1-1.4,1.6c0.1-1.9,1.9-2.9,2.2-4.4c-0.1-0.4-0.4-0.3-0.5-0.2c-0.4,0.2-0.7,0-0.5-0.4c0.6-1.1,1.2-2.2,2-3.2  c0.8-0.9,1.1-2,1.6-3.2c-1,0.1-1.3,1-1.9,1.4c-0.4-0.4,0-0.7,0.2-0.9c0.6-0.6,1.3-1.1,1.9-1.7c0.3-0.2,0.7-0.5,0.8-0.8  c0.2-1.3,0.9-2.2,1.8-3.1c-1.4,0-2.5,0.9-3.9,1.4c0.5-0.9,1.2-1.1,1.8-1.4c1.7-0.9,2.9-2.2,3.7-3.9c0.2-0.4,0.5-0.6,0.9-0.8  c0.7-0.3,1.4-0.6,2-1c1.1-0.7,2.3-1.4,2-3.1c-0.1-0.5,0.2-0.8,0.6-1c0.6-0.2,1.1-0.4,1.7-0.5c1.2-0.1,2-0.9,3-1.4  c0.1-0.1,0.4-0.1,0.2-0.3c-0.9-0.9,0.1-0.9,0.5-1.1c2.3-0.7,4.5-1.5,7-1.2c0.2,0,0.5,0.1,0.6,0c0.7-1,1.6-0.4,2.5-0.3  c0.9,0.1,1.8-0.2,2.7-0.4c0.4,0,0.7-0.2,1.1-0.2c0.5,0,1.3,0,1.3,0.6c0.1,0.8-0.7,0.6-1.2,0.6c-0.3,0-0.7-0.1-0.9,0.2  c-0.4,0.7-1,0.4-1.6,0.3c-0.6-0.1-1.3-0.2-1.9-0.1c-0.4,0.1-0.8,0-1,0.7c-0.2,0.7-1.1,0.8-1.9,0.8c-1.7-0.1-3.4,0.1-5.1,0.5  c-0.2,0-0.4,0.1-0.6,0.4c1.3,0.3,2.7-0.8,4.1,0.4c-1,0.5-2.2-0.1-2.7,1c-0.6-1-1.3-0.3-2-0.2c-0.7,0.1-1.4,0.5-2.1,0.6  c-1.1,0.2-2,0.8-2.6,1.7c-0.3,0.3-0.7,0.4-0.9,0.9c0.4,0.3,0.7-0.1,1-0.1c1-0.1,2-0.8,3.1-0.1c0.4,0.3,0.9-0.4,1.6-0.1  c-2.5,2.9-5,5.7-6.9,8.9c0.1,0.5,0.7-0.1,0.8,0.4c-2.8,3.4-5,7.2-6.6,11.4c1.6,0.2,1.6-1.5,2.7-2.2c0,1.4-1,2.1-1.4,3.1  c-0.4,1.1-0.9,2.2-1.4,3.2c-0.4,1-0.5,2.1-0.9,3.2c-0.4-1-0.1-1.9,0.2-2.8c0.3-1,0.7-1.9,1.1-3.1c-1.2,0.9-1.8,1.9-2.1,2.9  c-0.5,1.6-1.6,2.9-2.2,4.5c-0.3,0.8-0.6,1.6-0.9,2.4c-0.2,0.5-0.2,1-0.4,1.6c0.5-0.2,0.6-0.5,0.8-0.9c0.1-0.4,0.2-1,0.8-0.7  c0.5,0.3,0,0.8-0.2,1.1c-0.4,0.5-0.6,1.1-0.7,1.8c-0.1,0.3-0.1,0.6,0.2,0.9c0.6-0.2,0.5-0.8,0.6-1.2c0.3-0.8,0.5-1.6,0.9-2.4  c0.1-0.2,0.4-0.4,0.7-0.2C8.9,51,8.9,51.3,9,51.5c0.6,0,0.6-0.9,1.2-0.7l0,0c-0.5,1-1,2-1.5,3c-0.1,0.4-0.2,0.9-0.3,1.3  c0.5-0.4,0.6-0.8,0.2-1.3C9,54,9.3,54,9.5,53.8c0.2-0.2,0.4-0.4,0.7-0.1c0.8,1.1,1.1,0.1,1.4-0.4c0.3-0.5,0.4-1.3,1.4-1.3  c-0.7,1.1-0.9,2.2-1,3.4c0,0.3,0,0.5,0,0.8c0,0.4-0.1,1,0.4,1c0.5,0,1.2-0.2,1.2-1c0.1-1.3,0.5-2.5,0.8-3.7c0.9-3.3,1.6-6.7,2.9-10  c0.1-0.1,0-0.3,0.1-0.5c-1.2,0.6-1.8,1.5-1.9,2.7c-0.2,1.6-0.5,3.2-1.2,4.7c-0.2-1.1-0.2-2.3,0.2-3.3c0.4-0.9-0.3-1.8,0.1-2.4  c0.4-0.7,1-1.2,1.3-2.1c0.2-0.8,0.5-1.7,1.4-2.2c0.5,0-0.4,1.3,0.8,0.7c0.5-0.2,1.1,0,1.6-0.2c-1,1.3-2.7,5.3-3.6,9.2  c0.5-0.2,0.6-0.7,0.9-1c0.3-0.2,0.6-0.2,0.9,0.1c0.4,0.3,0.1,0.5-0.1,0.8c-1,0.9-1.5,2.1-1.7,3.3c-0.4,1.8-0.8,3.7-0.8,5.5  c-0.5,0.1-0.6-0.8-1.2-0.5c-0.4,0.2-0.5,0.6-0.6,0.9c-0.5,1.4-0.9,2.7-0.7,4.3c0.1,0.7,0.9,1.1,0.8,2c0.2-0.6,0.3-1.2,0.5-1.8  c0.1-0.3,0.2-0.8,0.5-1c1.2-0.6,1.1-1.7,1.2-2.8c0.1-1.1,0.3-2,1-2.9c0.4,0.1,0.4,0.3,0.4,0.5c-0.5,1.3-0.6,2.7-0.9,4  c-0.4,1.8-0.2,3.5-0.3,5.3c0,0.6-0.3,1.3,0.7,1.5c0.2,0.1,0.2,0.4,0.1,0.6c-0.4,0.9,0.5,1.6,0.1,2.5c-0.1,0.2,0.3,0.5,0.6,0.4  c0.6-0.2,1-0.7,1.1-1.4c0-1,0.2-1.9,0.4-2.8c0.1-0.5,0.1-1,0.4-1.5c0.4-0.5,0.2-1,0.2-1.5c0-1.6,0.1-3.2,0.1-4.8  c0-1.3,0.4-2.5,0.8-3.7c0.1-0.3,0.3-0.7,0.6-0.6c0.4,0.1,0.3,0.5,0.2,0.8c-1.3,3.2-1.1,6.6-1,9.9c0,0.8,0.2,0.3,0.5,0.2  c0.4,0,0.4,0.4,0.4,0.7c0,1.3,0.1,2.6,0.5,4c0.6-0.3,0.4-1.1,0.9-1.3c0.5,0.1,0.5,0.4,0.3,0.7c-0.5,1.1,0,2.1,0.3,3.1  c0.2,0.6,0.6,1.2,1.4,0.7c0.1-0.1,0.3-0.1,0.3-0.1c0.5,1.3,2.5,0.5,2.9,2c0,0.1,0,0.3,0.1,0.3c0.7,0.4,1.4,0.1,2.2,0.1  c0.6,0,1-0.2,1.1-1c-0.5-0.1-0.7,0.2-1,0.4c-1,0.6-1.8,0.4-2.3-0.6c-0.5-1-0.8-2-0.8-3.1c0-0.6,0-0.6,0.8-1.6c0,1.9-0.2,3.7,1.5,5.1  C29.7,73.7,28.7,72.8,29.2,71.8c1-1.6,1-3.4,0.6-5.2c0.3-0.7,0.5-1.4,0-2.2c-0.8,0.9-0.1,1.6,0,2.3c-0.6-0.2-0.8,0-0.8,0.6  C29.2,68.8,29.2,70.3,29.2,71.8z M8,34.6c1,0.5,1.5-0.3,2.2-0.3c1.2,0,1.5-0.8,1.9-1.5c1.6-2.7,3.1-5.5,5.1-8  c0.2-0.3,0.4-0.6,0.7-0.8c1.6-1.1,2.8-2.4,3.8-4.3c-2.4,0.2-4.2,1.3-6.4,2.5c0.9,0,1.3-0.3,1.8-0.4c0.5-0.1,1-0.2,1.6-0.1  c-0.4,0.5-0.9,0.6-1.4,0.7c-1.1,0.3-2.2,0.9-3.2,1.3c-0.8,0.4-0.8,0.6-0.3,1.4c0.1,0.1,0.1,0.3,0,0.4c-2.6,0.9-2.8,1-3.3,2.1  c1.1,0,1.8-1.4,3.3-0.7c-1.6,1.4-4.3,1.3-5,3.9c0.8-0.4,1.5-0.4,2.1-0.5c0.3,0,0.5-0.3,0.7,0c0.1,0.3-0.1,0.5-0.3,0.6  c-0.2,0.2-0.7,0.2-0.5,0.7c0.3,0.6-0.1,0.8-0.5,1C9.4,33.3,8.7,33.8,8,34.6z M8.9,41.4c0,0.7-0.4,1-0.6,1.3  c-0.7,0.8-1.2,1.8-1.7,2.7c-0.1,0.3-0.2,0.5,0.1,0.7c0.3,0.2,0.5,0,0.7-0.2c1.1-1.4,2-3,2.6-4.7c0.5-1.5,1-3,1.6-4.5  c0.1-0.3,0.4-0.6,0.1-1.1c-1.6,1.2-1.6,3.1-2.3,4.7c-0.4-0.6,0.2-1.2,0-1.9c-1.7,1.6-2.5,3.7-3.4,6C7.1,43.2,7.5,41.9,8.9,41.4z   M11.2,55.4c-1.4,0.7-0.8,2.1-1.2,3c-0.4,0.8-0.5,1.7-0.4,2.7c0.1,0.3,0.2,0.7,0.7,0.9C11.3,59.9,11.7,57.7,11.2,55.4z M10.7,35  c-2.4,1.2-5.3,4.3-5.7,6C7.2,39.1,9.4,37.4,10.7,35z M21.3,72.5c-0.4-2-1.2-3.7-2-5.3c-0.1,1-0.1,2-0.2,3c-0.1,0.8,0.3,1.3,1,1.6  C20.4,72,20.8,72.2,21.3,72.5z M16,68.9c-1.2-1.8-0.5-3.9-1-5.7c-0.4,1.1-0.5,2.3-0.7,3.4C14.1,68.2,14.1,68.3,16,68.9z M36.4,64.3  c-0.3,2.1-0.6,4.1-0.4,6.2C37,68.5,37.1,66.4,36.4,64.3z M12.3,65.4c0.1-1.5-0.3-3.2-1-4.2C10.4,63.2,10.7,64.5,12.3,65.4z   M4.7,45.8C5.4,44,6.2,42.2,7,40.3C5,41.8,4.3,43.6,4.7,45.8z M14.9,29.4c-1.7,2.1-2.8,4.1-2.8,5.3C13.4,33.2,14.2,31.4,14.9,29.4z   M21,75.1c0.3,0,0.6-0.1,0.7-0.5c0.1-0.7-1.1-1.8-1.8-1.7c-0.2,0-0.3,0.2-0.3,0.3C19.5,74,20.3,75.1,21,75.1z M8.8,59.3  c0-1.7,1.3-3,1.3-4.6C9,56.1,8.1,57.5,8.8,59.3z M4.6,52.7c-0.4,0.8-0.7,1.4-0.6,2.2C5.4,54.2,5.4,54.2,4.6,52.7z M7.1,60.1  C7,60.8,7,61.3,7,61.7c0,0.3,0,0.6,0.4,0.5c0.3,0,0.6-0.3,0.5-0.5C7.7,61.3,7.7,60.7,7.1,60.1z M14.5,56.8c0.5-1.1,0.4-1.9,0.4-2.7  C14.6,54.8,14,55.5,14.5,56.8z M5.4,48.6c0.5-0.3,0.9-0.7,0.8-1.5C5.6,47.4,5.4,47.9,5.4,48.6z M29.9,72.3c-0.1,0.8-0.3,1.3,0.1,1.7  c0.1,0.1,0.3,0.1,0.4-0.1C30.8,73.4,30.5,73,29.9,72.3z M25,13c-1.2,0.1-1.2,0.1-1.9,0.9C23.8,13.7,24.5,13.6,25,13z M8.7,32.5  C8,33,7.7,33.3,7.3,34C8,33.7,8.4,33.3,8.7,32.5z M35.3,74.4c0.1-0.2-0.1-0.3-0.2-0.3c-0.2,0-0.4,0.1-0.5,0.3c0,0.2,0,0.3,0.2,0.4  C35,74.9,35.2,74.7,35.3,74.4z"
    ></path>
    <path
      xmlns="http://www.w3.org/2000/svg"
      d="M36.1,19.3c0.6-0.3,0.8-0.9,0.9-1.6c0.1-0.8,0.6-1.2,1.5-1.3c0,0.9,0.1,1.7-0.5,2.5c-0.1,0.1-0.2,0.2-0.1,0.4  c1.4,3,1.1,6.2,1.4,9.4c0.3,2.2,0.2,4.4,0.5,6.7c0.1,1.1-0.4,2.3-0.3,3.5c-0.1-1-0.3-1.9-0.2-2.8c0.1-2.2-1.3-3.8-2.2-5.6  c-0.2-0.3-0.5-0.3-0.8-0.3c-1.1,0.2-2.1,0.7-3,1.3c-0.2,0.1-0.4,0.3-0.4,0.5c-1.2,2.6-2.9,5-3.6,7.9c-0.3,1.2-0.4,2.4-0.6,3.6  c-0.5,0.1-0.6-0.3-0.6-0.6c0-1.1,0.2-2.1,0.5-3.1c0.6-1.8,1.3-3.6,2.2-5.3c0.1-0.2,0.3-0.4,0-0.7c-1.2,1.6-2.8,2.8-3.6,4.7  c-0.1,0.2-0.2,0.4-0.5,0.3c-0.2-0.1-0.3-0.3-0.2-0.5c0.1-0.4,0.4-0.8,0.6-1.1c1.6-2,3.2-4,5-5.8c0.6-0.6,1.2-1.3,2.2-1.5  c0.4-0.1,0.6-0.5,1-0.8c0.4-0.4,0.5-0.8,0.1-1.2c-0.5-0.7-0.7-1.4-0.9-2.2c-0.1-0.2-0.1-0.6,0.2-0.7c0.4-0.1,0.5,0.3,0.6,0.6  c0.4,1.7,2.1,5.2,3.6,6.9c0-2.3-0.2-4.4-0.4-6.6C38.5,24.9,38.2,24,38,23c-0.1-0.4,0-0.8-0.7-0.9c-0.4,0-0.2-0.4-0.1-0.6  c0.6-0.6,0.6-1.2,0-2c-0.7,1-1.2,2.1-2.2,3.1C35,21.2,35.9,20.4,36.1,19.3L36.1,19.3z"
    ></path>
    <path
      xmlns="http://www.w3.org/2000/svg"
      d="M27.9,52.6c-0.8,0-0.4-1-1.1-1.3c-0.6,2.2-0.7,4.4-0.7,6.9c-0.8-1.2-0.3-2.3-0.6-3.4c-1.2,0.5-1.5,1.5-1.8,2.5  c-0.5,1.9-0.9,3.9-1,6c-0.1,1.2-0.6,2.3-0.2,3.5c0.9-4.2,1.9-6.7,3.2-7.6c0.3,0.8-0.5,1.1-0.7,1.7c-0.6,2-1.6,4-1.7,6.1  c0,0.4-0.1,0.7-0.5,1c-0.4,0.3-0.8,0.1-0.9-0.4c-0.1-0.7-0.1-1.5-0.1-2.2c0-2.6,0.6-5.1,1-7.6c0.1-0.6,0.3-1.1,0.6-1.6  c0.8-1.3,0.7-2.8,0.4-4.2c-0.1-0.3-0.2-0.6,0-0.9c0.8-1.7,0.8-3.5,1.1-5.3c0.2-1.2,0.4-1.6,1.8-2.7c-2,3.7-1.9,7.5-2.1,11.2  c1-0.1,1.3-0.7,1.4-1.4c0.2-1.3,0.4-2.6,0.6-3.9c0.1-0.9,0.4-1.7,1.1-2.5c0.1,0.9,0,1.9-0.2,2.5c-0.3,0.7-0.1,1.5,0.1,2.2  C27.6,51.6,27.9,52,27.9,52.6C27.9,52.6,27.9,52.6,27.9,52.6z"
    ></path>
    <path
      xmlns="http://www.w3.org/2000/svg"
      d="M47.1,46.7c-0.4-1.6-1-3.3,0-4.9c0.5-0.9,0.3-1.8,0.1-2.6c-1-4.1-2.1-8.1-3.6-12.1c-0.6-1.4-0.9-2.9-1.7-4.3  c-0.5-1-0.9-1.9-2-2.3c-0.2-0.1-0.5-0.3-0.3-0.6c0.1-0.2,0.4-0.1,0.6,0c0.6,0.3,1.3,0.6,1.6,1.2c1.5,2.5,3.2,4.8,4.1,7.5  c0.8,2.2,1.7,4.4,1.6,6.6c-0.1,1.9,0.4,3.7,0.4,5.5c0,0.8,0,1.6-0.4,2.3c-0.3,0.5-0.3,1.1-0.3,1.7C47.3,45.4,47.5,46.1,47.1,46.7z   M46.9,34.7c-0.5-2.8-1.2-5.6-2.6-8.1C44.8,29.4,46.1,32,46.9,34.7z"
    ></path>
    <path
      xmlns="http://www.w3.org/2000/svg"
      d="M46.1,18c0.5,0.1,0.5,0.5,0.7,0.8c2.2,4,3.9,8.1,5.4,12.4c1.2,3.6,1.8,7.2,1.6,10.9c0,0.3,0.1,0.8-0.4,1  c-0.3-0.1-0.2-0.4-0.2-0.6c-0.2-1.5,0.5-3.2-0.6-4.6c0.3-1.5-0.2-2.8-0.5-4.2c-1-4.8-3-9.2-5.4-13.4C46,19.2,46,19,46.1,18z"
    ></path>
    <path
      xmlns="http://www.w3.org/2000/svg"
      d="M28.7,21.1c-0.2,0.8-0.4,1.2-1.2,1.1c-1.4-0.1-2.5,0.6-3.2,1.7c-0.5,0.7-1.3,0.9-1.6,1.6c0.4,0.6,1.2,0,1.5,1  c-1.8-0.4-2.9,0.7-3.8,2c-0.5,0.7-1.1,1.3-1.7,1.9c-0.3,0.4-0.6,0.8-0.4,1.3c0.1,0.3,0.1,0.5-0.2,0.5c-0.3,0-0.4-0.2-0.4-0.5  c0-0.5,0.2-0.8,0.4-1.2c1.9-2.9,4.1-5.6,6.7-7.9C25.7,21.6,27.2,21.2,28.7,21.1z"
    ></path>
    <path
      xmlns="http://www.w3.org/2000/svg"
      d="M51.3,35c-0.7-0.1-0.5-0.8-0.7-1.3c-0.7-1.9-0.7-2.1-1.7-3.2c-0.1,1.3,0.4,2.4,0.4,3.6c-0.1,1.1,0,2.2,0,3.4  c0,1.2,0.5,2.3,0.3,3.5c-0.1,0-0.3,0-0.4,0.1c-0.2-1-0.4-1.9-0.4-2.9c0-1.1-0.2-2.3,0.2-3.4c0.3-1-0.3-2.1-0.4-3.1  c-0.4-2.6-0.7-5.3-1-7.9c0-0.1,0.1-0.3,0.2-0.4c0.4-0.1,0.4,0.3,0.4,0.5c0.1,1.3,0.2,2.6,0.4,4c0.1,0.9,0.4,1.7,1.1,2.5  C50.6,31.6,51.2,33.3,51.3,35L51.3,35z"
    ></path>
    <path
      xmlns="http://www.w3.org/2000/svg"
      d="M45.5,44.9c0-1.6,0.8-3.1-0.2-4.7c-0.3,1.2-0.3,2.5-1.1,3.7c-0.2-0.9,0.2-1.4,0.3-2c0.5-3.4,0.8-6.8-0.8-10.1  c-0.1-0.1,0-0.3,0.2-0.4c0.1,0,0.3,0,0.4,0.1c0.3,0.3,0.4,0.7,0.5,1.1c0.5,1.7,0.4,3.4,0.6,5c0.1,0.7,0.1,1.4,0.6,2.1  C46.8,40.9,46.4,43.4,45.5,44.9z"
    ></path>
    <path
      xmlns="http://www.w3.org/2000/svg"
      d="M33.2,27.3c-0.8-0.3,0-1.2-0.7-1.2c-0.7,0-0.6,0.7-0.8,1.2c-0.3,0.9-0.3,1.8-1,3c-0.1-1.6,0-2.8,0.5-4  c0.3-0.8-0.4-0.4-0.7-0.5c0.7-1.4,1.4-1.5,2.6-0.4c0.6-0.6,0.7-1.6,1.2-2.2c0.2-0.2,0.3-0.4,0.6-0.2c0.2,0.2,0.1,0.4,0,0.6  C34.2,24.7,33.5,26,33.2,27.3z"
    ></path>
    <path
      xmlns="http://www.w3.org/2000/svg"
      d="M36.2,19.3c-1.2,1-2,2.3-3,3.5c-0.3,0.4-0.5,0.8-0.9,0.1c-0.2-0.3-0.5-0.1-0.7,0c-0.5,0.3-1,0.6-1.3,1.1  c-0.8,1.1-1.7,2.2-2.6,3.3c0.2-0.9,0.7-1.7,1.3-2.5c0.8-0.9,1.5-1.8,2.3-2.6c0.3-0.3,0.6-0.8,1-0.8c1.8-0.2,2.6-1.7,3.6-2.9  c0.1-0.1,0.2-0.1,0.3-0.1c0,0,0.1,0,0.2,0C36.5,18.8,36,19,36.2,19.3C36.1,19.3,36.2,19.3,36.2,19.3z"
    ></path>
    <path
      xmlns="http://www.w3.org/2000/svg"
      d="M22,39.5c0-0.1,0-0.1,0-0.2c0.9-2,2-4,2.6-6.2c0.8,0.9,0.8,1.8,0.4,2.7c-0.3,0.9-0.2,1.8-0.2,2.8c-0.8-0.3-0.4-1-0.8-1.5  c-0.9,0.9-0.5,2.1-0.9,3.1c-0.3-0.6,0-1.1-0.2-1.6C22.4,38.6,22.5,39.5,22,39.5L22,39.5z"
    ></path>
    <path
      xmlns="http://www.w3.org/2000/svg"
      d="M42.4,39.6c-0.4-0.3-0.2-0.7-0.2-1c0-1.9,0.1-3.8,0.2-5.7c0.1-1.8-0.1-3.7-0.1-5.5c0-0.7-0.5-1.1-0.7-1.7  c-0.1-0.2-0.1-0.4,0.1-0.6c0.3-0.2,0.5,0,0.7,0.2c0.4,0.5,0.6,1.1,0.6,1.8c-0.2,2.8,0.1,5.5-0.3,8.3c-0.1,1.1,0,2.2,0,3.3  C42.6,38.9,42.7,39.3,42.4,39.6z"
    ></path>
    <path
      xmlns="http://www.w3.org/2000/svg"
      d="M27,18.2c1.7-2.8,7.4-5,10-3.9c-0.3,0.6-0.8,0.4-1.2,0.4c-2.3,0-4.5,0.7-6.5,1.8C28.4,17,27.9,17.9,27,18.2z"
    ></path>
    <path
      xmlns="http://www.w3.org/2000/svg"
      d="M31,42.7c-0.2,1.5-0.8,2.9-1,4.5c-0.5,2.9-1.3,5.8-1,8.9c-0.2-1.2-1.2-2.2-1-3.5c0,0,0,0,0,0c0.2,0.2,0.2,0.7,0.6,0.6  c0.4,0,0.3-0.5,0.4-0.8c0.2-2.4,0.3-4.7,1-7C30.1,44.5,30,43.4,31,42.7L31,42.7z"
    ></path>
    <path
      xmlns="http://www.w3.org/2000/svg"
      d="M27,35c-0.4-0.6-0.2-1-0.1-1.5c0.6-1.9,1.2-3.8,2.3-5.6c0.1-0.2,0.3-0.5,0.6-0.5c0.2,0,0.5,0.1,0.4,0.3  c-0.1,0.6-0.9,1-0.2,1.7c-0.1,0.1-0.2,0.3-0.3,0.3c-0.9,0.3-1.1,1.1-1.3,1.9C27.9,32.8,27.6,33.9,27,35z"
    ></path>
    <path
      xmlns="http://www.w3.org/2000/svg"
      d="M25.9,17.8c-2.3,2.8-4.2,5.5-6.1,8.6C20.2,24.2,24.2,18.5,25.9,17.8z"
    ></path>
    <path
      xmlns="http://www.w3.org/2000/svg"
      d="M25.2,20.8c1.5-1.8,3.5-2.9,5.6-4c0.3,0.6,0.8,1.1-0.2,1.4c-0.7,0.2-0.6,1.2-1.3,1.6c-0.3-0.6,0.5-0.9,0.2-1.5  C28,18.9,26.7,20.1,25.2,20.8z"
    ></path>
    <path
      xmlns="http://www.w3.org/2000/svg"
      d="M31.1,42.8c-0.6-0.2-1.1-0.4-0.9-1.3c0.4-1.7,1-3.4,1.6-5c0.1-0.3,0.2-0.7,0.6-0.6c0.5,0.2,0.3,0.6,0.1,0.9  c-0.9,1.5-1.2,3.3-1.8,5c0.6,0,0.6-0.7,1.3-0.6C31.8,41.9,31.5,42.3,31.1,42.8C31,42.7,31.1,42.8,31.1,42.8z"
    ></path>
    <path
      xmlns="http://www.w3.org/2000/svg"
      d="M56.3,27.9c-0.7-1.4-1-2.8-1.9-4c-0.8-1-1.2-2.4-2.7-3c0.6-0.3,1.1-0.5,1.4,0c1.3,1.9,2.7,3.7,3.1,6  C56.3,27.3,56.3,27.6,56.3,27.9z"
    ></path>
    <path
      xmlns="http://www.w3.org/2000/svg"
      d="M23.5,30.2c-2.2,0.7-3.3,2.2-4.5,3.6c-0.3,0.4-0.8,0.5-1.4,0.6c0.1-0.5,0.1-1,0.8-1.1c0.5-0.1,0.7-0.5,0.9-0.9  c0.4-0.7,1-1.3,1.6-1.8C21.6,30,22.3,29.7,23.5,30.2z"
    ></path>
    <path
      xmlns="http://www.w3.org/2000/svg"
      d="M30.8,53.4c0.3-1.6,0.5-3.1,0.8-4.7c0.2-1.1,0.5-2.1,0.9-3c0.1-0.3,0.2-0.6,0.7-0.6c0.3,0.5,0.1,1-0.2,1.4  c-0.9,2-1.3,4.1-1.7,6.3C31.3,53.1,31.2,53.3,30.8,53.4L30.8,53.4z"
    ></path>
    <path
      xmlns="http://www.w3.org/2000/svg"
      d="M32.7,57.4c2-2.3,2-5.5,3.5-8C35.5,52.2,34.9,55.2,32.7,57.4z"
    ></path>
    <path
      xmlns="http://www.w3.org/2000/svg"
      d="M18,61.1c-0.5-2.7,0-5.3,0.8-7.9c0.4,0,0.5,0.2,0.5,0.4C18.6,56.1,18.3,58.6,18,61.1z"
    ></path>
    <path
      xmlns="http://www.w3.org/2000/svg"
      d="M30.8,53.4c0.3,0.7,0.2,1.3,0.2,2c-0.1,1.6-0.3,3.2-0.4,4.9c-0.5-1.1-0.4-2.3-0.8-3.4c-0.1-0.4,0.2-0.5,0.4-0.8  C30.8,55.3,30.8,54.3,30.8,53.4C30.8,53.4,30.8,53.4,30.8,53.4z"
    ></path>
    <path
      xmlns="http://www.w3.org/2000/svg"
      d="M24.4,72.3c-0.7-1.7-0.3-3.5,0.1-5.2c0.1-0.3,0.3-0.5,0.6-0.3c0.3,0.2,0.6,0.6,0.4,0.7c-1.2,0.9-0.5,2.1-0.6,3.2  c-0.1,0.5,0,1,0,1.5C24.6,72.2,24.5,72.2,24.4,72.3z"
    ></path>
    <path
      xmlns="http://www.w3.org/2000/svg"
      d="M59.4,32c1.8,1.2,2.6,3.1,3.2,5.1C61.4,35.5,60.5,33.7,59.4,32z"
    ></path>
    <path
      xmlns="http://www.w3.org/2000/svg"
      d="M34.3,69.4c-0.1-1.6-0.2-3.1-0.3-4.5c0-0.5,0-1,0.2-1.4c0-0.1,0.2-0.1,0.3-0.1c0.2,0,0.3,0.1,0.3,0.3  c-0.5,1.4,0.1,2.8,0,4.2C34.8,68.4,34.9,68.9,34.3,69.4z"
    ></path>
    <path
      xmlns="http://www.w3.org/2000/svg"
      d="M12.6,42.6c-0.4,2.4-1.3,4.2-2.2,6.3C10.4,47.5,11.6,44,12.6,42.6z"
    ></path>
    <path
      xmlns="http://www.w3.org/2000/svg"
      d="M21,44.5c0,2,0,4,0,6C20.6,48.5,20.4,46.5,21,44.5z"
    ></path>
    <path
      xmlns="http://www.w3.org/2000/svg"
      d="M61.4,32.6c-1.4-0.9-2.5-1.9-3.2-3.2c-0.1-0.2-0.2-0.6,0.1-0.7c0.3-0.1,0.4,0.1,0.6,0.4c0.5,0.9,1.2,1.8,2,2.4  C61.1,31.8,61.4,32,61.4,32.6z"
    ></path>
    <path
      xmlns="http://www.w3.org/2000/svg"
      d="M23.7,30.4c0.3-1.9,0.7-3.7,1.7-5.3C25.1,26.9,24.2,28.6,23.7,30.4z"
    ></path>
    <path
      xmlns="http://www.w3.org/2000/svg"
      d="M20.4,35.7c-0.3,1.4-1.5,2.1-2.4,3.1C18.6,37.6,19.2,36.4,20.4,35.7L20.4,35.7z"
    ></path>
    <path
      xmlns="http://www.w3.org/2000/svg"
      d="M27.8,58.1c0.7,1.1,1.8,1.9,1.8,3.4C28.9,61,28.1,59.4,27.8,58.1L27.8,58.1z"
    ></path>
    <path
      xmlns="http://www.w3.org/2000/svg"
      d="M28.5,64.2c-1-1-1.4-2.3-1.5-3.7C27.8,61.6,28.2,62.9,28.5,64.2C28.4,64.2,28.5,64.2,28.5,64.2z"
    ></path>
    <path
      xmlns="http://www.w3.org/2000/svg"
      d="M33.1,34.9c-0.3-0.3-0.2-0.6-0.1-0.8c0.2-0.4,0.4-0.7,0.9-0.8c0.1,0,0.2,0.1,0.2,0.1c0.2,0.4-0.2,0.7-0.4,1  C33.6,34.6,33.5,34.9,33.1,34.9z"
    ></path>
    <path
      xmlns="http://www.w3.org/2000/svg"
      d="M32.8,17.7c0.3,1.2-0.8,2-1,3C31.8,19.6,32.4,18.7,32.8,17.7L32.8,17.7z"
    ></path>
    <path
      xmlns="http://www.w3.org/2000/svg"
      d="M22,39.5c0.1,1.1-0.2,2.1-0.8,3.4C21.1,41.4,21.4,40.4,22,39.5C22,39.5,22,39.5,22,39.5z"
    ></path>
    <path
      xmlns="http://www.w3.org/2000/svg"
      d="M27.8,58.1c-0.6-0.8-0.9-1.7-0.9-2.7C27.5,56.2,27.8,57.1,27.8,58.1C27.8,58.1,27.8,58.1,27.8,58.1z"
    ></path>
    <path
      xmlns="http://www.w3.org/2000/svg"
      d="M51.2,35c0.5,0.7,0.7,1.5,0.5,2.4C51.5,36.6,51,35.9,51.2,35C51.3,35,51.2,35,51.2,35z"
    ></path>
    <path
      xmlns="http://www.w3.org/2000/svg"
      d="M20.5,35.7c-0.1-0.8,0.6-1.1,1.3-1.8C21.6,35,21.1,35.4,20.5,35.7C20.4,35.7,20.5,35.7,20.5,35.7z"
    ></path>
    <path
      xmlns="http://www.w3.org/2000/svg"
      d="M22.9,42.6c-0.2-0.2-0.1-0.5,0-0.7c0.3,0.1,0.1,0.3,0.2,0.5C23,42.4,22.9,42.5,22.9,42.6z"
    ></path>
    <path
      xmlns="http://www.w3.org/2000/svg"
      d="M10.2,50.8c0-0.6,0.3-0.8,1-1.1C11,50.4,10.7,50.7,10.2,50.8C10.2,50.7,10.2,50.8,10.2,50.8z"
    ></path>
    <path
      xmlns="http://www.w3.org/2000/svg"
      d="M30,55.3c-0.1-0.1-0.1-0.2-0.1-0.3c0-0.3,0-0.5,0.4-0.5c0,0,0.1,0.2,0.1,0.3C30.2,54.9,30.1,55.1,30,55.3z"
    ></path>
    <path
      xmlns="http://www.w3.org/2000/svg"
      d="M32.9,17.7c0.1-0.3,0.2-0.7,0.6-1C33.6,17.3,33.5,17.7,32.9,17.7C32.8,17.7,32.9,17.7,32.9,17.7z"
    ></path>
    <path
      xmlns="http://www.w3.org/2000/svg"
      d="M39.9,40.8c0,0.2-0.1,0.3-0.1,0.2c0-0.1,0-0.3,0-0.5c0-0.1,0.1-0.1,0.1-0.2C39.9,40.6,39.9,40.7,39.9,40.8z"
    ></path>
    <path
      xmlns="http://www.w3.org/2000/svg"
      d="M84.3,66.6c0-1.7-0.7-3.3-0.5-5.1c0.8,0.1,0.6,0.6,0.6,0.9c0.2,3.2,0.3,6.3,0.4,9.5c0.1,1.1-0.2,2.2,0.1,3.3  c0,0.1,0,0.3-0.1,0.5c-0.4,0.6-0.8,1.1-0.7,1.9c0.1,0.7-0.1,1.5-0.1,2.2c0,0.7,0.2,1.4,0.3,2.2c-0.9-0.1-0.7-0.8-0.8-1.2  c-0.2-0.5-0.3-1-0.7-1.4c-0.5,0.4,0,0.9-0.3,1.3c-0.8-1.1-0.2-2.9-2.2-3.5c0,1,0,2,0,2.9c-0.1,0-0.1,0-0.2,0c0.1-1-0.3-1.9-0.3-2.8  c0-0.5-0.4-0.7-0.7-1c-1.2-1-2.2-2.2-3-3.5c-0.4-0.7-0.8-1.4-0.1-2.5c0.2,2.4,1.4,3.9,3.2,5.3c-0.1-2.8-1.5-5-1.9-7.4  c0.4-0.5,0.9,0.1,1.3-0.2c0.2-0.1,0.3,0.1,0.2,0.2c-0.2,0.3-0.1,0.5,0.1,0.7c1.8,2.3,3.1,4.8,4.4,7.4c0.1,0.2,0.2,0.4,0.5,0.5  c0.4-1.1,0.2-2.3,0.1-3.4c-0.1-1-0.2-2-0.3-3c-0.2-1.8-0.7-3.6-2.3-4.7c-0.1-0.1-0.2-0.1-0.2-0.2c-0.1-0.4-0.7-0.8-0.3-1.1  c0.4-0.4,0.8,0.2,1,0.5c0.5,0.7,0.9,1.4,1.4,2.2C83.5,67.1,84,66.9,84.3,66.6c-0.6,1.4-0.8,2.7,0.1,4.3  C84.6,69.3,84.5,67.9,84.3,66.6z M83,77.2c-1.2-2.7-2.4-5.1-4.3-7.2c0.1,1.1,0.3,2.1,0.6,3.1c0.1,0.2,0.1,0.6,0.4,0.7  c1.3,0.4,1.6,1.6,2.1,2.7C81.8,76.9,82.1,77.3,83,77.2z M79.8,74.9c0,0.8-0.1,1.6,1.1,1.8C81,75.7,80.3,75.3,79.8,74.9z M84.3,73.4  c-0.3,0.5-0.3,0.9,0,1.4C84.6,74.3,84.6,73.9,84.3,73.4z M83.7,78.6c-0.1-0.2-0.2-0.4-0.5-0.3c-0.1,0-0.2,0.1-0.1,0.2  c0.1,0.2,0.2,0.4,0.5,0.3C83.7,78.8,83.8,78.7,83.7,78.6z"
    ></path>
    <path
      xmlns="http://www.w3.org/2000/svg"
      d="M68,44.1c1.1,0,2.2,0.2,3.2,0.4c1.5,0.4,2.9,0.5,4.4,0.3c1.1-0.1,2.2-0.1,3.3,0.2c3,0.6,5.9,1.3,8.9,1.8  c1.7,0.3,2.8,2.6,1.2,4.3c-1.3,1.4-3.1,2.1-4.9,2.5C78.4,54.8,73.9,58,70,62.2c-1.9,2-4.2,3.4-7.1,3.6c-0.9,0.1-1.7,0.5-2.5,0.9  c-2.4,1.3-4.9,1.6-7.5,0.4c-2.7-1.3-3.6-3.8-2.5-6.5c0.5-1.1,0.8-2.2,0.9-3.4c0.2-2.3,1.4-3.9,3.2-5c1.3-0.8,2.6-1.5,3.9-2.2  c1.3-0.6,2.4-1.4,3.3-2.5c0.7-0.8,1.4-1.4,2.2-2.1C65.1,44.5,66.5,44.1,68,44.1z M56.3,66.9c1.1-0.3,2.6-0.3,3.8-1.1  c0.8-0.6,1.7-0.9,2.6-1.2c3.5-1,6.4-2.9,8.8-5.7c0.5-0.6,1.1-1.3,1.7-1.6c1-0.4,1.7-1,2.5-1.7c2.1-1.7,4.6-2.6,7.3-3  c1.6-0.2,3.1-0.7,4.5-1.6c0.7-0.4,1.3-1,1.1-2c-0.1-0.9-0.9-1.1-1.6-1.3c-2-0.3-3.9-0.8-5.9-1.3c-1.4-0.3-2.8-0.8-4.2-0.7  c-2.6,0.1-5.2-0.1-7.8-0.8c-1.8-0.5-3.4,0-4.6,1.4c-0.3,0.4-0.6,0.7-1,1.1c-1.1,1.1-2.1,2.3-3.5,2.9c-1.7,0.7-3.2,1.8-4.9,2.7  c-1.6,0.9-2.3,2.3-2.6,4c-0.2,1.3-0.5,2.6-1.1,3.8c-0.9,1.9-0.3,3.7,1.5,4.8C53.8,66.6,54.9,66.7,56.3,66.9z"
    ></path>
    <path
      xmlns="http://www.w3.org/2000/svg"
      d="M49.9,70.6c0.2-0.9,0.1-1.8,1-2.7C51,69.2,50.5,69.9,49.9,70.6C49.9,70.6,49.9,70.6,49.9,70.6z"
    ></path>
    <path
      xmlns="http://www.w3.org/2000/svg"
      d="M47.9,67.3c0.2-0.6,0.3-1.1,0.5-1.7c0.1-0.1,0.2-0.2,0.4-0.2c0.2,0.1,0.3,0.2,0.2,0.4C48.8,66.5,48.8,67.3,47.9,67.3  C47.9,67.3,47.9,67.3,47.9,67.3z"
    ></path>
    <path
      xmlns="http://www.w3.org/2000/svg"
      d="M47.4,68.7c-0.2-0.6,0.3-1,0.6-1.4c0,0,0,0,0,0C48,67.9,47.9,68.4,47.4,68.7C47.3,68.7,47.4,68.7,47.4,68.7z"
    ></path>
    <path
      xmlns="http://www.w3.org/2000/svg"
      d="M71.1,79.6c-1-0.5-1.4-1.5-2.2-2.2c-0.9-0.7-1.7-1.4-2.9-1.7c0.6-1.1,1.2,0,1.8-0.2c0.3-0.3-0.3-0.6,0.1-0.9  c1.8,0.7,4.3,2.8,5.4,4.5c-1.5-0.9-2.7-2.4-4.6-3.2c0.4,1,1.2,1.3,1.6,2C70.4,78.5,71,78.9,71.1,79.6L71.1,79.6z"
    ></path>
    <path
      xmlns="http://www.w3.org/2000/svg"
      d="M63.4,80.8c-2.2-0.6-4.5-1.1-6.4-2.5c0.3-0.5,0.6-0.2,0.8-0.1c0.8,0.5,1.7,0.9,2.6,1.2c0.3,0.1,0.5,0.1,0.7-0.2l0.1-0.1  C62.1,79.5,62.8,80.1,63.4,80.8L63.4,80.8z"
    ></path>
    <path
      xmlns="http://www.w3.org/2000/svg"
      d="M63.3,80.9c1.1,0,1.7,0.8,2.5,1.3C64.9,82,64,81.6,63.3,80.9C63.4,80.8,63.3,80.9,63.3,80.9z"
    ></path>
    <path
      xmlns="http://www.w3.org/2000/svg"
      d="M71,79.6c0.6,0.2,0.6,0.7,0.7,1.1C71.4,80.4,71,80.1,71,79.6C71.1,79.6,71,79.6,71,79.6z"
    ></path>
    <path
      xmlns="http://www.w3.org/2000/svg"
      d="M61.1,79.3c-0.1,0-0.2-0.1-0.3-0.1c-0.3-0.3-0.5-0.5-0.3-0.9c0-0.1,0.2-0.1,0.3-0.1c0.4,0.1,0.3,0.5,0.4,0.8  C61.2,79,61.2,79.1,61.1,79.3C61.2,79.2,61.1,79.3,61.1,79.3z"
    ></path>
    <path
      xmlns="http://www.w3.org/2000/svg"
      d="M78.4,77.7c-0.5-0.4-0.9-1-1-1.7C78,76.4,78.3,77,78.4,77.7z"
    ></path>
    <path
      xmlns="http://www.w3.org/2000/svg"
      d="M85.1,59.6c0.2,0,0.3,0.1,0.3,0.2c0.1,0.2,0,0.4-0.2,0.5c-0.2,0.1-0.4,0-0.4-0.3C84.8,59.8,84.8,59.6,85.1,59.6z"
    ></path>
    <path
      xmlns="http://www.w3.org/2000/svg"
      d="M77.5,76.1c-0.6-0.3-0.8-0.8-1-1.3C77,75,77.4,75.5,77.5,76.1z"
    ></path>
    <path
      xmlns="http://www.w3.org/2000/svg"
      d="M79.1,79c-0.4-0.4-0.6-0.8-0.7-1.3C78.8,78,79.1,78.4,79.1,79z"
    ></path>
  </g>
  <g
    id="SvgjsG1398"
    featurekey="dYASrj-0"
    transform="matrix(3.830159567717761,0,0,3.830159567717761,-2.298093548995772,95.77085163174522)"
    fill="#111111"
  >
    <path
      d="M10.4 16.2 c0.34 0 0.54 0.22 0.42 0.56 c-0.62 2.08 -2.58 3.52 -4.92 3.52 c-3.04 0 -5.3 -2.3 -5.3 -5.28 s2.26 -5.28 5.3 -5.28 c2.34 0 4.3 1.44 4.92 3.52 c0.12 0.34 -0.08 0.56 -0.42 0.56 l-2.2 0 c-0.26 0 -0.44 -0.12 -0.6 -0.34 c-0.36 -0.5 -0.98 -0.78 -1.7 -0.78 c-1.3 0 -2.3 0.94 -2.3 2.32 s1 2.32 2.3 2.32 c0.72 0 1.34 -0.28 1.7 -0.76 c0.16 -0.24 0.32 -0.36 0.6 -0.36 l2.2 0 z M16.5 9.72 c2.2 0 4.16 1.28 4.16 3.98 l0 5.8 c0 0.32 -0.18 0.5 -0.5 0.5 l-1.92 0 c-0.32 0 -0.5 -0.18 -0.5 -0.5 l0 -0.28561 c-0.5362 0.6276 -1.3234 1.0656 -2.58 1.0656 c-1.76 0 -3.3 -1.04 -3.3 -3.12 s1.54 -3.12 3.3 -3.12 c1.2566 0 2.0438 0.3546 2.58 0.76262 l0 -0.9026 c0 -0.98 -0.4 -1.42 -1.24 -1.42 c-0.62 0 -1 0.24 -1.16 0.58 c-0.12 0.28 -0.22 0.44 -0.52 0.44 l-1.96 0 c-0.32 0 -0.52 -0.18 -0.5 -0.52 c0.26 -2.16 2.1 -3.26 4.14 -3.26 z M16.22 18.16 c0.98 0 1.52 -0.42 1.52 -1 c0 -0.62 -0.54 -1 -1.52 -1 c-0.92 0 -1.36 0.42 -1.36 1 s0.44 1 1.36 1 z M25.3 13 c0 1.48 5.22 0.1 5.22 4 c0 2.3 -1.96 3.28 -4.16 3.28 c-2.04 0 -3.88 -0.92 -4.12 -3.04 c-0.04 -0.34 0.16 -0.52 0.48 -0.52 l1.96 0 c0.3 0 0.4 0.16 0.54 0.42 c0.16 0.34 0.54 0.54 1.14 0.54 c0.84 0 1.16 -0.28 1.16 -0.68 c0 -1.44 -5.22 -0.12 -5.22 -4 c0 -2.26 1.96 -3.28 4.06 -3.28 c1.86 0 3.68 0.92 3.92 3.04 c0.04 0.34 -0.16 0.52 -0.48 0.52 l-1.96 0 c-0.3 0 -0.4 -0.16 -0.54 -0.44 c-0.14 -0.32 -0.48 -0.52 -0.94 -0.52 c-0.74 0 -1.06 0.28 -1.06 0.68 z M36.46 9.72 c2.2 0 4.16 1.28 4.16 3.98 l0 5.8 c0 0.32 -0.18 0.5 -0.5 0.5 l-1.92 0 c-0.32 0 -0.5 -0.18 -0.5 -0.5 l0 -0.28561 c-0.5362 0.6276 -1.3234 1.0656 -2.58 1.0656 c-1.76 0 -3.3 -1.04 -3.3 -3.12 s1.54 -3.12 3.3 -3.12 c1.2566 0 2.0438 0.3546 2.58 0.76262 l0 -0.9026 c0 -0.98 -0.4 -1.42 -1.24 -1.42 c-0.62 0 -1 0.24 -1.16 0.58 c-0.12 0.28 -0.22 0.44 -0.52 0.44 l-1.96 0 c-0.32 0 -0.52 -0.18 -0.5 -0.52 c0.26 -2.16 2.1 -3.26 4.14 -3.26 z M36.18 18.16 c0.98 0 1.52 -0.42 1.52 -1 c0 -0.62 -0.54 -1 -1.52 -1 c-0.92 0 -1.36 0.42 -1.36 1 s0.44 1 1.36 1 z M56.86 16.2 c0.34 0 0.54 0.22 0.42 0.56 c-0.62 2.08 -2.58 3.52 -4.92 3.52 c-3.04 0 -5.3 -2.3 -5.3 -5.28 s2.26 -5.28 5.3 -5.28 c2.34 0 4.3 1.44 4.92 3.52 c0.12 0.34 -0.08 0.56 -0.42 0.56 l-2.2 0 c-0.26 0 -0.44 -0.12 -0.6 -0.34 c-0.36 -0.5 -0.98 -0.78 -1.7 -0.78 c-1.3 0 -2.3 0.94 -2.3 2.32 s1 2.32 2.3 2.32 c0.72 0 1.34 -0.28 1.7 -0.76 c0.16 -0.24 0.32 -0.36 0.6 -0.36 l2.2 0 z M63.62 20.28 c-2.94 0 -5.3 -2.3 -5.3 -5.28 s2.36 -5.28 5.3 -5.28 s5.3 2.3 5.3 5.28 s-2.36 5.28 -5.3 5.28 z M63.62 17.36 c1.3 0 2.3 -0.94 2.3 -2.36 s-1 -2.36 -2.3 -2.36 s-2.3 0.94 -2.3 2.36 s1 2.36 2.3 2.36 z M79.92 16.2 c0.34 0 0.54 0.22 0.42 0.56 c-0.62 2.08 -2.58 3.52 -4.92 3.52 c-3.04 0 -5.3 -2.3 -5.3 -5.28 s2.26 -5.28 5.3 -5.28 c2.34 0 4.3 1.44 4.92 3.52 c0.12 0.34 -0.08 0.56 -0.42 0.56 l-2.2 0 c-0.26 0 -0.44 -0.12 -0.6 -0.34 c-0.36 -0.5 -0.98 -0.78 -1.7 -0.78 c-1.3 0 -2.3 0.94 -2.3 2.32 s1 2.32 2.3 2.32 c0.72 0 1.34 -0.28 1.7 -0.76 c0.16 -0.24 0.32 -0.36 0.6 -0.36 l2.2 0 z M86.68 20.28 c-2.94 0 -5.3 -2.3 -5.3 -5.28 s2.36 -5.28 5.3 -5.28 s5.3 2.3 5.3 5.28 s-2.36 5.28 -5.3 5.28 z M86.68 17.36 c1.3 0 2.3 -0.94 2.3 -2.36 s-1 -2.36 -2.3 -2.36 s-2.3 0.94 -2.3 2.36 s1 2.36 2.3 2.36 z"
    ></path>
  </g>
</svg>
